<?xml version="1.0" encoding="UTF-8" standalone="no"?>
<!-- Created with Inkscape (http://www.inkscape.org/) -->

<svg
   width="1200"
   height="960"
   version="1.1"
   id="svg31716"
   inkscape:version="1.2.2 (b0a8486541, 2022-12-01)"
   xmlns:inkscape="http://www.inkscape.org/namespaces/inkscape"
   xmlns:sodipodi="http://sodipodi.sourceforge.net/DTD/sodipodi-0.dtd"
   xmlns="http://www.w3.org/2000/svg"
   xmlns:svg="http://www.w3.org/2000/svg"
   xmlns:rdf="http://www.w3.org/1999/02/22-rdf-syntax-ns#"
   xmlns:cc="http://creativecommons.org/ns#"
   xmlns:dc="http://purl.org/dc/elements/1.1/">
  <defs
     id="defs31710" />
  <sodipodi:namedview
     id="base"
     pagecolor="#ffffff"
     bordercolor="#666666"
     borderopacity="1.0"
     inkscape:pageopacity="0.0"
     inkscape:pageshadow="2"
     inkscape:zoom="0.24748737"
     inkscape:cx="389.91889"
     inkscape:cy="206.07112"
     inkscape:document-units="px"
     inkscape:current-layer="svg31716"
     showgrid="false"
     inkscape:window-width="3840"
     inkscape:window-height="2074"
     inkscape:window-x="0"
     inkscape:window-y="49"
     inkscape:window-maximized="1"
     inkscape:showpageshadow="0"
     inkscape:pagecheckerboard="1"
     inkscape:deskcolor="#d1d1d1" />
  <metadata
     id="metadata31713">
    <rdf:RDF>
      <cc:Work
         rdf:about="">
        <dc:format>image/svg+xml</dc:format>
        <dc:type
           rdf:resource="http://purl.org/dc/dcmitype/StillImage" />
        <dc:title />
      </cc:Work>
    </rdf:RDF>
  </metadata>
  <path
     d="M 62.234375 160.67773 C 57.493631 160.67805 52.641986 161.24103 46.869141 162.88672 C 31.432039 167.29001 22.629469 171.602 18.162109 183.65625 C 13.827161 195.72177 11.61568 259.30545 18.162109 287.82227 C 24.841939 316.29319 38.684817 359.50764 44.65625 391.98438 C 50.627419 424.0666 49.079324 441.27187 60.048828 471.94531 C 71.106729 502.61765 93.091797 535.49023 93.091797 535.49023 C 108.48476 553.04815 110.73976 560.70609 129.49414 565.0625 C 148.20437 569.46503 163.59719 566.17871 185.625 565.06055 C 207.69625 564.03641 242.94982 565.14678 224.19531 567.30273 C 205.52916 569.45622 182.43888 570.29121 162.49023 577.20117 C 141.96651 584.29043 131.66108 592.47317 118.43555 607.875 C 105.25425 623.18988 90.613566 652.1441 86.5 662.61719 C 84.37732 668.15895 83.580571 670.53451 83.447266 672.72852 C 82.695544 684.78926 83.188847 679.03491 82.076172 698.78125 C 80.972247 718.45116 75.442191 727.25393 74.335938 740.45508 C 73.270648 753.61291 76.944694 763.82249 85.392578 768.92773 C 105.20856 781.02662 106.31465 802.19656 116.22266 811.92188 C 126.17385 821.56163 130.4653 821.5644 138.25 830.31641 C 145.99187 839.07913 150.67923 853.85968 155.94336 861.0332 C 165.58713 874.23225 172.48551 871.98501 179.07617 876.25781 C 185.66624 880.69933 191.19576 909.22021 202.16602 915.82227 C 213.26909 922.32811 225.343 924.49443 231.93359 927.83398 C 238.56829 931.1451 244.05229 945.38943 256.2168 954.14844 C 268.33675 962.8706 280.4128 957.40616 288.10938 960.71484 C 295.80492 964.06437 301.33508 967.36563 314.56055 970.61523 C 327.78593 973.90565 332.20834 973.90345 348.70703 970.61328 C 365.20591 967.36392 370.73527 958.55823 389.44531 934.43945 C 408.19996 910.32487 418.15269 886.16393 435.71289 865.4375 C 453.36149 844.53446 467.69183 829.17563 480.87305 801.75977 C 494.14268 774.43122 499.6713 756.83009 509.53516 717.40039 C 519.53152 678.01461 526.07872 652.70969 530.50195 628.63867 C 533.37257 612.86059 535.32149 601.7713 536.00586 587.97266 C 542.70551 599.71273 541.83188 608.73339 540.41992 623.25391 C 539.87739 628.13801 534.00438 644.37727 539.17969 647.45703 C 537.54144 653.88043 535.06868 658.09985 534.75586 665.41406 C 534.43878 672.23456 529.93546 680.29111 533.91602 686.13867 C 536.43587 690.09928 527.27802 708.04442 534.75391 709.37305 C 533.91162 713.07106 531.43556 733.73993 536.43359 733.49023 C 531.47883 740.31093 533.55912 759.50835 536.56641 765.04297 L 539.75195 766.31445 C 535.99083 773.39841 544.70443 788.30934 548.10938 794.78516 C 552.04623 802.36168 559.29951 811.88704 566.82031 811.94922 L 566.81641 811.97852 C 574.38009 811.97828 581.63352 802.38141 585.57031 794.81641 C 588.88878 788.34747 597.64593 773.42313 593.93164 766.34375 L 597.11523 765.03125 C 600.11939 759.48666 602.19943 740.30439 597.20117 733.47852 C 602.24349 733.74319 599.85262 713.06057 598.83789 709.36133 C 606.35685 708.04137 597.20032 689.99414 599.76562 686.12695 C 603.66179 680.2745 599.24129 672.3162 598.92773 665.40039 C 598.53052 658.18762 596.14227 653.87401 594.46094 647.44531 C 599.54869 644.36615 593.80071 628.1385 593.26953 623.24219 C 591.81674 608.70837 590.94136 599.6835 597.69141 587.92773 C 598.37652 601.84614 600.29351 612.9754 603.18164 628.85156 C 607.60472 652.92328 614.19496 678.22577 624.19141 717.61133 C 634.05522 757.0414 639.58493 774.64353 652.81055 801.97266 C 666.03597 829.38749 680.32269 844.74744 698.01562 865.65039 C 715.57577 886.37747 725.43945 910.53505 744.23828 934.65039 C 762.9927 958.75881 768.43376 967.57392 784.97656 970.82617 C 801.43106 974.1217 805.89784 974.11755 819.16797 970.82227 C 832.34938 967.57027 837.87775 964.2598 845.57422 960.91602 C 853.22642 957.61428 865.34795 963.07197 877.4668 954.35352 C 889.62985 945.59573 895.15863 931.3488 901.70508 928.03711 C 908.29576 924.69698 920.45944 922.53436 931.47266 916.02344 C 942.48636 909.42272 948.0177 880.90299 954.60742 876.46094 C 961.24228 872.1836 968.14233 874.4399 977.74023 861.23438 C 983.00366 854.06224 987.73717 839.27656 995.38867 830.51953 C 1003.1291 821.76274 1007.554 821.76249 1017.5059 812.125 C 1027.4582 802.40044 1028.5636 781.23517 1048.4238 769.13086 C 1056.784 764.02584 1060.5396 753.82357 1059.4375 740.6582 C 1058.3317 727.45621 1052.7695 718.6545 1051.7852 698.98438 C 1050.6897 679.23301 1051.0823 684.98991 1050.2832 672.93164 C 1050.1497 670.73148 1049.4862 668.34264 1047.3633 662.81055 C 1043.2055 652.33704 1028.5648 623.38028 1015.3398 608.06641 C 1002.0701 592.664 991.76251 584.47844 971.15039 577.39453 C 951.24583 570.48134 928.24653 569.63902 909.49219 567.48242 C 890.7362 565.27145 925.94358 564.18072 948.01562 565.18359 C 970.08655 566.26812 985.52472 569.57839 1004.2793 565.17773 C 1023.0781 560.82074 1025.2894 553.16408 1040.7266 535.60547 C 1040.7266 535.60547 1062.7104 502.73227 1073.8574 472.06055 C 1084.738 441.3881 1083.233 424.18061 1089.1602 392.09961 C 1095.2201 359.6231 1109.0217 316.40989 1115.7012 287.9375 C 1122.204 259.42243 1120.0812 195.8406 1115.7012 183.77344 C 1111.2339 171.7264 1102.4311 167.40061 1086.9941 163.00195 C 1071.5115 158.50934 1062.707 161.77523 1045.0156 162.94922 C 1027.4112 164.0065 986.54112 179.41059 961.24023 191.42188 C 935.85072 203.43564 880.42718 228.03538 847.69531 252.54688 C 813.10565 278.42303 773.91636 307.55539 745.25391 330.61328 C 716.67983 353.63062 659.35447 416.07627 641.75 437.99023 C 628.78156 454.13432 611.05993 480.27711 602.58789 492.98047 C 601.49986 490.61013 600.21384 488.34064 598.66602 486.38281 L 586.19336 482.77148 C 586.1938 477.52295 593.13792 479.6936 596.5 477.27344 C 599.90973 474.75671 600.97422 470.97145 600.48047 466.44141 C 599.55305 457.69034 593.35678 455.4697 586.35547 454.70898 C 588.77409 450.40609 622.5806 390.25484 629.49805 377.33984 C 636.84004 363.82997 669.35156 311.85938 669.35156 311.85938 C 680.94089 291.96756 686.02722 284.39866 692.66211 273.13281 C 699.38477 262.04818 702.92291 251.30592 703.14453 248.18164 C 703.32193 244.78923 699.78337 243.33772 696.86523 246.01758 C 694.60986 248.12116 686.33803 258.29736 680.32227 269.82617 C 674.219 281.31525 670.36962 289.49603 659.35547 309.82617 C 659.35547 309.82617 631.88711 364.61567 624.14648 377.77344 C 616.8086 390.28048 584.52185 447.34625 580.99414 453.58203 C 577.71915 443.57788 578.65396 430.21391 572.61328 421.02734 L 570.0918 417.86133 L 569.47852 421.21094 C 568.90595 424.87286 568.80846 429.21497 568.41211 433.04883 C 568.04987 436.74025 568.13982 445.28115 567.04102 448.31836 L 566.64648 448.31836 C 565.59504 445.28267 565.62913 436.73948 565.28125 433.04883 C 564.83442 429.2249 564.74064 424.87337 564.2168 421.21484 L 563.51172 417.875 L 560.99023 421.04688 C 554.93223 430.26082 555.88866 443.72128 552.66211 453.69141 C 549.23009 447.61024 516.8432 390.22756 509.49414 377.73633 C 501.75353 364.5345 474.24023 309.74609 474.24023 309.74609 C 463.27194 289.503 459.37845 281.27466 453.31836 269.74414 C 447.21405 258.29648 438.98828 248.09203 436.73242 245.9375 C 433.85745 243.24247 430.32052 244.79693 430.49609 248.13867 C 430.67311 251.26407 434.25691 261.96162 440.93555 273.13477 C 447.61457 284.31198 452.69974 291.87985 464.28906 311.85938 C 464.28906 311.85938 496.84697 363.83054 504.09961 377.33984 C 511.10757 390.17905 544.86409 450.52903 547.22852 454.75586 C 540.21206 455.53668 534.12555 457.72447 533.16797 466.46094 C 532.636 470.9924 533.78577 474.78375 537.19141 477.28711 C 540.50874 479.6977 547.4544 477.54433 547.41016 482.7832 L 534.98047 486.39453 C 533.41335 488.35272 532.1437 490.61871 531.06836 492.98242 C 522.6096 480.28321 504.8953 454.13079 491.89062 437.98242 C 474.28604 416.06757 417.00626 353.62109 388.34375 330.60547 C 359.72547 307.54644 320.53503 278.41484 285.94531 252.53906 C 253.16917 228.02751 197.79111 203.42788 172.49023 191.41406 C 147.14518 179.40147 106.31802 163.9981 88.757812 162.94141 C 77.727309 162.23745 70.135616 160.67721 62.234375 160.67773 z"
     id="lepidoptera"
     transform="translate(33.069675,-86.986541)" />
</svg>
